# xmcd
#
# Track frame offsets: 
#        150
#        20373
#        105846
#
# Disc length: 2518 seconds
#
# Revision: 0
# Processed by: cddbd v1.5.2PL0 Copyright (c) Steve Scherf et al.
# Submitted via: ExactAudioCopy v0.99pb4
#
DISCID=1309d403
DTITLE=Ashtray Navigations - Johnny Fuckoff Minotaur (Easter Exit 2)
DYEAR=2009
DGENRE=Psychedelic
TTITLE0=one year medicine head
TTITLE1=why not - robot vices
TTITLE2=nihilistic surfbored
EXTD=
EXTT0=
EXTT1=
EXTT2=
PLAYORDER=
